# xmcd
#
# Track frame offsets: 
#        150
#        18870
#        40609
#        66113
#        89475
#        113142
#        132088
#        151544
#        176486
#        200684
#        224589
#
# Disc length: 3306 seconds
#
# Revision: 0
# Processed by: cddbd v1.5.2PL0 Copyright (c) Steve Scherf et al.
# Submitted via: ExactAudioCopyFreeDBPlugin 1.0
#
DISCID=8d0ce80b
DTITLE=윤종신 - 行步2013
DYEAR=2013
DGENRE=Ballad
TTITLE0=내일 할 일 with 성시경
TTITLE1=No Schedule with 김연우
TTITLE2=너에게 간다 with 김범수
TTITLE3=나에게 온다 with 양파
TTITLE4=환생 with 킹스턴 루디스카
TTITLE5=팥빙수 with J Rabbit
TTITLE6=굿바이 with 박지윤
TTITLE7=우둔남녀 with A.T
TTITLE8=Annie with Sweet Sorrow
TTITLE9=그댄 여전히 멋있는 사람 with 김윤아
TTITLE10=오래전 그날 with 이적
EXTD=
EXTT0=
EXTT1=
EXTT2=
EXTT3=
EXTT4=
EXTT5=
EXTT6=
EXTT7=
EXTT8=
EXTT9=
EXTT10=
PLAYORDER=
